<?xml version="1.0" ?><svg enable-background="new 0 0 64 64" version="1.1" viewBox="0 0 64 64" xml:space="preserve" xmlns="http://www.w3.org/2000/svg" xmlns:xlink="http://www.w3.org/1999/xlink"><g id="Grid"/><g id="row_3"/><g id="row_2"><g id="atm"><rect fill="#263238" height="1" width="14" x="25" y="58"/><path d="M50,5H14c-0.8,0.8-1.2,1.2-2,2l0,40c0.8,0.8,1.2,1.2,2,2h11l7,10l7-10h11c0.8-0.8,1.2-1.2,2-2l0-40    C51.2,6.2,50.8,5.8,50,5z" fill="#01579B"/><rect fill="#263238" height="4" width="22" x="21" y="28"/><g><polygon fill="#F44336" points="41,42 23,42 25,30 39,30    "/><path d="M25.7,37.7l0.9-5.7h10.6l0.9,5.7c-1.2,0-2.2,1.1-2,2.3h-8.6C27.9,38.8,27,37.7,25.7,37.7z" fill="#FFC107"/><ellipse cx="32" cy="32" fill="#F44336" rx="5" ry="2"/><rect fill="#F44336" height="1" width="18" x="23" y="43"/><rect fill="#F44336" height="1" width="18" x="23" y="45"/></g><rect fill="#FFECB3" height="14" width="22" x="21" y="11"/><g><polygon fill="#FFC107" points="18,11 18,15 23,13    "/><polygon fill="#FFC107" points="18,21 18,25 23,23    "/><polygon fill="#FFC107" points="18,16 18,20 23,18    "/><polygon fill="#FFC107" points="46,11 46,15 41,13    "/><polygon fill="#FFC107" points="46,21 46,25 41,23    "/><polygon fill="#FFC107" points="46,16 46,20 41,18    "/></g></g></g><g id="row_1"/></svg>